<svg width="192" height="150" viewBox="0 0 192 150" fill="none" xmlns="http://www.w3.org/2000/svg">
<path d="M96 150C137.421 150 171 116.421 171 75C171 33.5786 137.421 0 96 0C54.5786 0 21 33.5786 21 75C21 116.421 54.5786 150 96 150Z" fill="url(#paint0_linear_2957_23316)"/>
<g filter="url(#filter0_d_2957_23316)">
<path d="M46 34H181C182.326 34 183.598 34.5268 184.536 35.4645C185.473 36.4021 186 37.6739 186 39V64C186 65.3261 185.473 66.5979 184.536 67.5355C183.598 68.4732 182.326 69 181 69H46C44.6739 69 43.4021 68.4732 42.4645 67.5355C41.5268 66.5979 41 65.3261 41 64V39C41 37.6739 41.5268 36.4021 42.4645 35.4645C43.4021 34.5268 44.6739 34 46 34V34Z" fill="white"/>
</g>
<path d="M110 42H84C82.3431 42 81 43.3431 81 45C81 46.6569 82.3431 48 84 48H110C111.657 48 113 46.6569 113 45C113 43.3431 111.657 42 110 42Z" fill="#B4DAFF"/>
<path d="M128 55H84C82.3431 55 81 56.3431 81 58C81 59.6569 82.3431 61 84 61H128C129.657 61 131 59.6569 131 58C131 56.3431 129.657 55 128 55Z" fill="#DEE9FC"/>
<path d="M73 51.5C73 43.4919 66.5081 37 58.5 37C50.4919 37 44 43.4919 44 51.5C44 59.5081 50.4919 66 58.5 66C66.5081 66 73 59.5081 73 51.5Z" fill="#1485FD"/>
<path d="M57.6 56.194C58.8413 56.1939 60.0469 55.7785 61.025 55.014L64.1 58.089L65.089 57.1L62.013 54.024C62.7858 53.0248 63.1974 51.7934 63.1807 50.5303C63.1641 49.2672 62.7201 48.047 61.9212 47.0686C61.1223 46.0901 60.0155 45.4111 58.7813 45.1422C57.547 44.8733 56.2581 45.0303 55.1245 45.5877C53.991 46.1451 53.0796 47.07 52.539 48.2117C51.9984 49.3533 51.8604 50.6444 52.1475 51.8746C52.4346 53.1047 53.1299 54.2013 54.12 54.9857C55.1102 55.7701 56.3368 56.196 57.6 56.194ZM57.6 46.4C58.4306 46.4 59.2427 46.6464 59.9334 47.1079C60.624 47.5694 61.1624 48.2253 61.4803 48.9928C61.7981 49.7602 61.8813 50.6047 61.7193 51.4194C61.5572 52.2341 61.1572 52.9825 60.5698 53.5699C59.9824 54.1573 59.2341 54.5573 58.4193 54.7193C57.6046 54.8814 56.7601 54.7982 55.9927 54.4803C55.2252 54.1624 54.5693 53.6241 54.1078 52.9334C53.6463 52.2427 53.4 51.4307 53.4 50.6C53.4 49.4861 53.8425 48.4178 54.6301 47.6302C55.4178 46.8425 56.4861 46.4 57.6 46.4Z" fill="white"/>
<g filter="url(#filter1_d_2957_23316)">
<path d="M146 79H11C8.23858 79 6 81.2386 6 84V109C6 111.761 8.23858 114 11 114H146C148.761 114 151 111.761 151 109V84C151 81.2386 148.761 79 146 79Z" fill="white"/>
</g>
<path d="M75 87H49C47.3431 87 46 88.3431 46 90C46 91.6569 47.3431 93 49 93H75C76.6569 93 78 91.6569 78 90C78 88.3431 76.6569 87 75 87Z" fill="#B4DAFF"/>
<path d="M93 100H49C47.3431 100 46 101.343 46 103C46 104.657 47.3431 106 49 106H93C94.6569 106 96 104.657 96 103C96 101.343 94.6569 100 93 100Z" fill="#DEE9FC"/>
<path d="M38 96.5C38 88.4919 31.5081 82 23.5 82C15.4919 82 9 88.4919 9 96.5C9 104.508 15.4919 111 23.5 111C31.5081 111 38 104.508 38 96.5Z" fill="#1485FD"/>
<path d="M22.6 101.194C23.8413 101.194 25.0469 100.778 26.025 100.014L29.1 103.089L30.089 102.1L27.013 99.024C27.7858 98.0248 28.1974 96.7934 28.1807 95.5303C28.1641 94.2672 27.7201 93.047 26.9212 92.0686C26.1223 91.0901 25.0155 90.4111 23.7813 90.1422C22.547 89.8733 21.2581 90.0303 20.1245 90.5877C18.991 91.1451 18.0796 92.07 17.539 93.2117C16.9984 94.3533 16.8604 95.6444 17.1475 96.8746C17.4346 98.1047 18.1299 99.2013 19.12 99.9857C20.1102 100.77 21.3368 101.196 22.6 101.194ZM22.6 91.4C23.4306 91.4 24.2427 91.6464 24.9334 92.1079C25.624 92.5694 26.1624 93.2253 26.4803 93.9928C26.7981 94.7602 26.8813 95.6047 26.7193 96.4194C26.5572 97.2341 26.1572 97.9825 25.5698 98.5699C24.9824 99.1573 24.2341 99.5573 23.4193 99.7193C22.6046 99.8814 21.7601 99.7982 20.9927 99.4803C20.2252 99.1624 19.5693 98.6241 19.1078 97.9334C18.6463 97.2427 18.4 96.4307 18.4 95.6C18.4 94.4861 18.8425 93.4178 19.6301 92.6302C20.4178 91.8425 21.4861 91.4 22.6 91.4Z" fill="white"/>
<defs>
<filter id="filter0_d_2957_23316" x="35" y="31" width="157" height="47" filterUnits="userSpaceOnUse" color-interpolation-filters="sRGB">
<feFlood flood-opacity="0" result="BackgroundImageFix"/>
<feColorMatrix in="SourceAlpha" type="matrix" values="0 0 0 0 0 0 0 0 0 0 0 0 0 0 0 0 0 0 127 0" result="hardAlpha"/>
<feOffset dy="3"/>
<feGaussianBlur stdDeviation="3"/>
<feColorMatrix type="matrix" values="0 0 0 0 0 0 0 0 0 0 0 0 0 0 0 0 0 0 0.161 0"/>
<feBlend mode="normal" in2="BackgroundImageFix" result="effect1_dropShadow_2957_23316"/>
<feBlend mode="normal" in="SourceGraphic" in2="effect1_dropShadow_2957_23316" result="shape"/>
</filter>
<filter id="filter1_d_2957_23316" x="0" y="76" width="157" height="47" filterUnits="userSpaceOnUse" color-interpolation-filters="sRGB">
<feFlood flood-opacity="0" result="BackgroundImageFix"/>
<feColorMatrix in="SourceAlpha" type="matrix" values="0 0 0 0 0 0 0 0 0 0 0 0 0 0 0 0 0 0 127 0" result="hardAlpha"/>
<feOffset dy="3"/>
<feGaussianBlur stdDeviation="3"/>
<feColorMatrix type="matrix" values="0 0 0 0 0 0 0 0 0 0 0 0 0 0 0 0 0 0 0.161 0"/>
<feBlend mode="normal" in2="BackgroundImageFix" result="effect1_dropShadow_2957_23316"/>
<feBlend mode="normal" in="SourceGraphic" in2="effect1_dropShadow_2957_23316" result="shape"/>
</filter>
<linearGradient id="paint0_linear_2957_23316" x1="96" y1="0" x2="96" y2="150" gradientUnits="userSpaceOnUse">
<stop stop-color="#E3ECFA"/>
<stop offset="1" stop-color="#DAE7FF"/>
</linearGradient>
</defs>
</svg>
